<svg width="42" height="42" viewBox="0 0 42 42" fill="none" xmlns="http://www.w3.org/2000/svg">
<path d="M17.3882 12.9575H20.6572V16.3052H17.3882V12.9575Z" fill="url(#paint0_linear_197_1271)"/>
<path d="M23.9261 12.9575H20.6572V16.3052H23.9261V12.9575Z" fill="url(#paint1_linear_197_1271)"/>
<path d="M15.8129 10.8702H19.0818V14.2178H15.8129V10.8702Z" fill="url(#paint2_linear_197_1271)"/>
<path d="M25.5015 10.8702H22.2326V14.2178H25.5015V10.8702Z" fill="url(#paint3_linear_197_1271)"/>
<path d="M14.2375 8.74338H17.5064V12.0911H14.2375V8.74338Z" fill="url(#paint4_linear_197_1271)"/>
<path d="M27.0769 8.74338H23.8079V12.0911H27.0769V8.74338Z" fill="url(#paint5_linear_197_1271)"/>
<path d="M12.6621 6.656H15.931V10.0037H12.6621V6.656Z" fill="url(#paint6_linear_197_1271)"/>
<path d="M28.6916 6.656H25.4227V10.0037H28.6916V6.656Z" fill="url(#paint7_linear_197_1271)"/>
<path d="M12.6621 6.656H15.931V10.0037H12.6621V6.656Z" fill="url(#paint8_linear_197_1271)"/>
<path d="M28.6916 6.656H25.4227V10.0037H28.6916V6.656Z" fill="url(#paint9_linear_197_1271)"/>
<path d="M12.6621 3.34769H15.931V6.69538H12.6621V3.34769Z" fill="url(#paint10_linear_197_1271)"/>
<path d="M15.931 0H19.0818V3.34769H15.931V0Z" fill="url(#paint11_linear_197_1271)"/>
<path d="M19.0818 0H22.2719V3.34769H19.0818V0Z" fill="url(#paint12_linear_197_1271)"/>
<path d="M22.2719 0H25.4227V3.34769H22.2719V0Z" fill="url(#paint13_linear_197_1271)"/>
<path d="M19.0003 3.34769H22.2692V6.69538H19.0003V3.34769Z" fill="url(#paint14_linear_197_1271)"/>
<path d="M28.6916 3.34769H25.4227V6.69538H28.6916V3.34769Z" fill="url(#paint15_linear_197_1271)"/>
<path d="M28.3963 17.3883V20.6572H25.0486V17.3883H28.3963Z" fill="url(#paint16_linear_197_1271)"/>
<path d="M28.3963 23.9261V20.6572H25.0486V23.9261H28.3963Z" fill="url(#paint17_linear_197_1271)"/>
<path d="M30.4837 15.8129V19.0818H27.136V15.8129H30.4837Z" fill="url(#paint18_linear_197_1271)"/>
<path d="M30.4837 25.5015V22.2326H27.136V25.5015H30.4837Z" fill="url(#paint19_linear_197_1271)"/>
<path d="M32.6105 14.2375V17.5065H29.2628V14.2375L32.6105 14.2375Z" fill="url(#paint20_linear_197_1271)"/>
<path d="M32.6105 27.0769V23.808H29.2628L29.2628 27.0769H32.6105Z" fill="url(#paint21_linear_197_1271)"/>
<path d="M34.6978 12.6622V15.9311H31.3502V12.6622H34.6978Z" fill="url(#paint22_linear_197_1271)"/>
<path d="M34.6978 28.6917V25.4228H31.3502V28.6917H34.6978Z" fill="url(#paint23_linear_197_1271)"/>
<path d="M34.6978 12.6622V15.9311H31.3502V12.6622H34.6978Z" fill="url(#paint24_linear_197_1271)"/>
<path d="M34.6978 28.6917V25.4228H31.3502V28.6917H34.6978Z" fill="url(#paint25_linear_197_1271)"/>
<path d="M38.0061 12.6622V15.9311H34.6585V12.6622H38.0061Z" fill="url(#paint26_linear_197_1271)"/>
<path d="M41.3538 15.9311V19.0818H38.0061V15.9311H41.3538Z" fill="url(#paint27_linear_197_1271)"/>
<path d="M41.3538 19.0818V22.272H38.0061V19.0818H41.3538Z" fill="url(#paint28_linear_197_1271)"/>
<path d="M41.3538 22.272V25.4228H38.0061V22.272H41.3538Z" fill="url(#paint29_linear_197_1271)"/>
<path d="M38.0061 19.0004V22.2693H34.6584V19.0004H38.0061Z" fill="url(#paint30_linear_197_1271)"/>
<path d="M38.0061 28.6917V25.4228H34.6585V28.6917H38.0061Z" fill="url(#paint31_linear_197_1271)"/>
<path d="M17.3882 28.3963H20.6572V25.0486H17.3882V28.3963Z" fill="url(#paint32_linear_197_1271)"/>
<path d="M23.9261 28.3963H20.6572V25.0486H23.9261V28.3963Z" fill="url(#paint33_linear_197_1271)"/>
<path d="M15.8129 30.4837H19.0818V27.136H15.8129V30.4837Z" fill="url(#paint34_linear_197_1271)"/>
<path d="M25.5015 30.4837H22.2326V27.136H25.5015V30.4837Z" fill="url(#paint35_linear_197_1271)"/>
<path d="M14.2375 32.6105H17.5064V29.2628H14.2375V32.6105Z" fill="url(#paint36_linear_197_1271)"/>
<path d="M27.0769 32.6105H23.8079V29.2628H27.0769V32.6105Z" fill="url(#paint37_linear_197_1271)"/>
<path d="M12.6621 34.6978H15.931V31.3502H12.6621V34.6978Z" fill="url(#paint38_linear_197_1271)"/>
<path d="M28.6916 34.6978H25.4227V31.3502H28.6916V34.6978Z" fill="url(#paint39_linear_197_1271)"/>
<path d="M12.6621 34.6978H15.931V31.3502H12.6621V34.6978Z" fill="url(#paint40_linear_197_1271)"/>
<path d="M28.6916 34.6978H25.4227V31.3502H28.6916V34.6978Z" fill="url(#paint41_linear_197_1271)"/>
<path d="M12.6621 38.0061H15.931V34.6585H12.6621V38.0061Z" fill="url(#paint42_linear_197_1271)"/>
<path d="M15.931 41.3538H19.0818V38.0061H15.931V41.3538Z" fill="url(#paint43_linear_197_1271)"/>
<path d="M19.0818 41.3538H22.2719V38.0061H19.0818V41.3538Z" fill="url(#paint44_linear_197_1271)"/>
<path d="M22.2719 41.3538H25.4227V38.0061H22.2719V41.3538Z" fill="url(#paint45_linear_197_1271)"/>
<path d="M19.0003 38.0061H22.2692V34.6585H19.0003V38.0061Z" fill="url(#paint46_linear_197_1271)"/>
<path d="M28.6916 38.0061H25.4227V34.6585H28.6916V38.0061Z" fill="url(#paint47_linear_197_1271)"/>
<path d="M12.9575 17.3883V20.6572H16.3052V17.3883H12.9575Z" fill="url(#paint48_linear_197_1271)"/>
<path d="M12.9575 23.9262V20.6572H16.3052V23.9262H12.9575Z" fill="url(#paint49_linear_197_1271)"/>
<path d="M10.8702 15.8129V19.0819H14.2178L14.2178 15.8129H10.8702Z" fill="url(#paint50_linear_197_1271)"/>
<path d="M10.8702 25.5015V22.2326H14.2178V25.5015H10.8702Z" fill="url(#paint51_linear_197_1271)"/>
<path d="M8.74338 14.2375V17.5065H12.0911L12.0911 14.2375H8.74338Z" fill="url(#paint52_linear_197_1271)"/>
<path d="M8.74338 27.0769L8.74338 23.808H12.0911V27.0769H8.74338Z" fill="url(#paint53_linear_197_1271)"/>
<path d="M6.656 12.6622V15.9311H10.0037V12.6622H6.656Z" fill="url(#paint54_linear_197_1271)"/>
<path d="M6.656 28.6917V25.4228H10.0037L10.0037 28.6917H6.656Z" fill="url(#paint55_linear_197_1271)"/>
<path d="M6.656 12.6622V15.9311H10.0037V12.6622H6.656Z" fill="url(#paint56_linear_197_1271)"/>
<path d="M6.656 28.6917V25.4228H10.0037L10.0037 28.6917H6.656Z" fill="url(#paint57_linear_197_1271)"/>
<path d="M3.34769 12.6622L3.34769 15.9311H6.69538V12.6622H3.34769Z" fill="url(#paint58_linear_197_1271)"/>
<path d="M1.39446e-07 15.9311L1.72157e-09 19.0819H3.34769V15.9311H1.39446e-07Z" fill="url(#paint59_linear_197_1271)"/>
<path d="M1.72157e-09 19.0819L0 22.272H3.34769V19.0819H1.72157e-09Z" fill="url(#paint60_linear_197_1271)"/>
<path d="M0 22.272L1.72157e-09 25.4228H3.34769V22.272H0Z" fill="url(#paint61_linear_197_1271)"/>
<path d="M3.34778 19.0004V22.2693H6.69547V19.0004H3.34778Z" fill="url(#paint62_linear_197_1271)"/>
<path d="M3.34769 28.6917V25.4228H6.69538L6.69538 28.6917H3.34769Z" fill="url(#paint63_linear_197_1271)"/>
<defs>
<linearGradient id="paint0_linear_197_1271" x1="-6.5" y1="7.5" x2="37.5" y2="41" gradientUnits="userSpaceOnUse">
<stop stop-color="#EE00FF"/>
<stop offset="0.663888" stop-color="#EE5705"/>
<stop offset="1" stop-color="#EE05E7"/>
</linearGradient>
<linearGradient id="paint1_linear_197_1271" x1="-6.5" y1="7.5" x2="37.5" y2="41" gradientUnits="userSpaceOnUse">
<stop stop-color="#EE00FF"/>
<stop offset="0.663888" stop-color="#EE5705"/>
<stop offset="1" stop-color="#EE05E7"/>
</linearGradient>
<linearGradient id="paint2_linear_197_1271" x1="-6.5" y1="7.5" x2="37.5" y2="41" gradientUnits="userSpaceOnUse">
<stop stop-color="#EE00FF"/>
<stop offset="0.663888" stop-color="#EE5705"/>
<stop offset="1" stop-color="#EE05E7"/>
</linearGradient>
<linearGradient id="paint3_linear_197_1271" x1="-6.5" y1="7.5" x2="37.5" y2="41" gradientUnits="userSpaceOnUse">
<stop stop-color="#EE00FF"/>
<stop offset="0.663888" stop-color="#EE5705"/>
<stop offset="1" stop-color="#EE05E7"/>
</linearGradient>
<linearGradient id="paint4_linear_197_1271" x1="-6.5" y1="7.5" x2="37.5" y2="41" gradientUnits="userSpaceOnUse">
<stop stop-color="#EE00FF"/>
<stop offset="0.663888" stop-color="#EE5705"/>
<stop offset="1" stop-color="#EE05E7"/>
</linearGradient>
<linearGradient id="paint5_linear_197_1271" x1="-6.5" y1="7.5" x2="37.5" y2="41" gradientUnits="userSpaceOnUse">
<stop stop-color="#EE00FF"/>
<stop offset="0.663888" stop-color="#EE5705"/>
<stop offset="1" stop-color="#EE05E7"/>
</linearGradient>
<linearGradient id="paint6_linear_197_1271" x1="-6.5" y1="7.5" x2="37.5" y2="41" gradientUnits="userSpaceOnUse">
<stop stop-color="#EE00FF"/>
<stop offset="0.663888" stop-color="#EE5705"/>
<stop offset="1" stop-color="#EE05E7"/>
</linearGradient>
<linearGradient id="paint7_linear_197_1271" x1="-6.5" y1="7.5" x2="37.5" y2="41" gradientUnits="userSpaceOnUse">
<stop stop-color="#EE00FF"/>
<stop offset="0.663888" stop-color="#EE5705"/>
<stop offset="1" stop-color="#EE05E7"/>
</linearGradient>
<linearGradient id="paint8_linear_197_1271" x1="-6.5" y1="7.5" x2="37.5" y2="41" gradientUnits="userSpaceOnUse">
<stop stop-color="#EE00FF"/>
<stop offset="0.663888" stop-color="#EE5705"/>
<stop offset="1" stop-color="#EE05E7"/>
</linearGradient>
<linearGradient id="paint9_linear_197_1271" x1="-6.5" y1="7.5" x2="37.5" y2="41" gradientUnits="userSpaceOnUse">
<stop stop-color="#EE00FF"/>
<stop offset="0.663888" stop-color="#EE5705"/>
<stop offset="1" stop-color="#EE05E7"/>
</linearGradient>
<linearGradient id="paint10_linear_197_1271" x1="-6.5" y1="7.5" x2="37.5" y2="41" gradientUnits="userSpaceOnUse">
<stop stop-color="#EE00FF"/>
<stop offset="0.663888" stop-color="#EE5705"/>
<stop offset="1" stop-color="#EE05E7"/>
</linearGradient>
<linearGradient id="paint11_linear_197_1271" x1="-6.5" y1="7.5" x2="37.5" y2="41" gradientUnits="userSpaceOnUse">
<stop stop-color="#EE00FF"/>
<stop offset="0.663888" stop-color="#EE5705"/>
<stop offset="1" stop-color="#EE05E7"/>
</linearGradient>
<linearGradient id="paint12_linear_197_1271" x1="-6.5" y1="7.5" x2="37.5" y2="41" gradientUnits="userSpaceOnUse">
<stop stop-color="#EE00FF"/>
<stop offset="0.663888" stop-color="#EE5705"/>
<stop offset="1" stop-color="#EE05E7"/>
</linearGradient>
<linearGradient id="paint13_linear_197_1271" x1="-6.5" y1="7.5" x2="37.5" y2="41" gradientUnits="userSpaceOnUse">
<stop stop-color="#EE00FF"/>
<stop offset="0.663888" stop-color="#EE5705"/>
<stop offset="1" stop-color="#EE05E7"/>
</linearGradient>
<linearGradient id="paint14_linear_197_1271" x1="-6.5" y1="7.5" x2="37.5" y2="41" gradientUnits="userSpaceOnUse">
<stop stop-color="#EE00FF"/>
<stop offset="0.663888" stop-color="#EE5705"/>
<stop offset="1" stop-color="#EE05E7"/>
</linearGradient>
<linearGradient id="paint15_linear_197_1271" x1="-6.5" y1="7.5" x2="37.5" y2="41" gradientUnits="userSpaceOnUse">
<stop stop-color="#EE00FF"/>
<stop offset="0.663888" stop-color="#EE5705"/>
<stop offset="1" stop-color="#EE05E7"/>
</linearGradient>
<linearGradient id="paint16_linear_197_1271" x1="-6.5" y1="7.5" x2="37.5" y2="41" gradientUnits="userSpaceOnUse">
<stop stop-color="#EE00FF"/>
<stop offset="0.663888" stop-color="#EE5705"/>
<stop offset="1" stop-color="#EE05E7"/>
</linearGradient>
<linearGradient id="paint17_linear_197_1271" x1="-6.5" y1="7.5" x2="37.5" y2="41" gradientUnits="userSpaceOnUse">
<stop stop-color="#EE00FF"/>
<stop offset="0.663888" stop-color="#EE5705"/>
<stop offset="1" stop-color="#EE05E7"/>
</linearGradient>
<linearGradient id="paint18_linear_197_1271" x1="-6.5" y1="7.5" x2="37.5" y2="41" gradientUnits="userSpaceOnUse">
<stop stop-color="#EE00FF"/>
<stop offset="0.663888" stop-color="#EE5705"/>
<stop offset="1" stop-color="#EE05E7"/>
</linearGradient>
<linearGradient id="paint19_linear_197_1271" x1="-6.5" y1="7.5" x2="37.5" y2="41" gradientUnits="userSpaceOnUse">
<stop stop-color="#EE00FF"/>
<stop offset="0.663888" stop-color="#EE5705"/>
<stop offset="1" stop-color="#EE05E7"/>
</linearGradient>
<linearGradient id="paint20_linear_197_1271" x1="-6.5" y1="7.5" x2="37.5" y2="41" gradientUnits="userSpaceOnUse">
<stop stop-color="#EE00FF"/>
<stop offset="0.663888" stop-color="#EE5705"/>
<stop offset="1" stop-color="#EE05E7"/>
</linearGradient>
<linearGradient id="paint21_linear_197_1271" x1="-6.5" y1="7.5" x2="37.5" y2="41" gradientUnits="userSpaceOnUse">
<stop stop-color="#EE00FF"/>
<stop offset="0.663888" stop-color="#EE5705"/>
<stop offset="1" stop-color="#EE05E7"/>
</linearGradient>
<linearGradient id="paint22_linear_197_1271" x1="-6.5" y1="7.5" x2="37.5" y2="41" gradientUnits="userSpaceOnUse">
<stop stop-color="#EE00FF"/>
<stop offset="0.663888" stop-color="#EE5705"/>
<stop offset="1" stop-color="#EE05E7"/>
</linearGradient>
<linearGradient id="paint23_linear_197_1271" x1="-6.5" y1="7.5" x2="37.5" y2="41" gradientUnits="userSpaceOnUse">
<stop stop-color="#EE00FF"/>
<stop offset="0.663888" stop-color="#EE5705"/>
<stop offset="1" stop-color="#EE05E7"/>
</linearGradient>
<linearGradient id="paint24_linear_197_1271" x1="-6.5" y1="7.5" x2="37.5" y2="41" gradientUnits="userSpaceOnUse">
<stop stop-color="#EE00FF"/>
<stop offset="0.663888" stop-color="#EE5705"/>
<stop offset="1" stop-color="#EE05E7"/>
</linearGradient>
<linearGradient id="paint25_linear_197_1271" x1="-6.5" y1="7.5" x2="37.5" y2="41" gradientUnits="userSpaceOnUse">
<stop stop-color="#EE00FF"/>
<stop offset="0.663888" stop-color="#EE5705"/>
<stop offset="1" stop-color="#EE05E7"/>
</linearGradient>
<linearGradient id="paint26_linear_197_1271" x1="-6.5" y1="7.5" x2="37.5" y2="41" gradientUnits="userSpaceOnUse">
<stop stop-color="#EE00FF"/>
<stop offset="0.663888" stop-color="#EE5705"/>
<stop offset="1" stop-color="#EE05E7"/>
</linearGradient>
<linearGradient id="paint27_linear_197_1271" x1="-6.5" y1="7.5" x2="37.5" y2="41" gradientUnits="userSpaceOnUse">
<stop stop-color="#EE00FF"/>
<stop offset="0.663888" stop-color="#EE5705"/>
<stop offset="1" stop-color="#EE05E7"/>
</linearGradient>
<linearGradient id="paint28_linear_197_1271" x1="-6.5" y1="7.5" x2="37.5" y2="41" gradientUnits="userSpaceOnUse">
<stop stop-color="#EE00FF"/>
<stop offset="0.663888" stop-color="#EE5705"/>
<stop offset="1" stop-color="#EE05E7"/>
</linearGradient>
<linearGradient id="paint29_linear_197_1271" x1="-6.5" y1="7.5" x2="37.5" y2="41" gradientUnits="userSpaceOnUse">
<stop stop-color="#EE00FF"/>
<stop offset="0.663888" stop-color="#EE5705"/>
<stop offset="1" stop-color="#EE05E7"/>
</linearGradient>
<linearGradient id="paint30_linear_197_1271" x1="-6.5" y1="7.5" x2="37.5" y2="41" gradientUnits="userSpaceOnUse">
<stop stop-color="#EE00FF"/>
<stop offset="0.663888" stop-color="#EE5705"/>
<stop offset="1" stop-color="#EE05E7"/>
</linearGradient>
<linearGradient id="paint31_linear_197_1271" x1="-6.5" y1="7.5" x2="37.5" y2="41" gradientUnits="userSpaceOnUse">
<stop stop-color="#EE00FF"/>
<stop offset="0.663888" stop-color="#EE5705"/>
<stop offset="1" stop-color="#EE05E7"/>
</linearGradient>
<linearGradient id="paint32_linear_197_1271" x1="-6.5" y1="7.5" x2="37.5" y2="41" gradientUnits="userSpaceOnUse">
<stop stop-color="#EE00FF"/>
<stop offset="0.663888" stop-color="#EE5705"/>
<stop offset="1" stop-color="#EE05E7"/>
</linearGradient>
<linearGradient id="paint33_linear_197_1271" x1="-6.5" y1="7.5" x2="37.5" y2="41" gradientUnits="userSpaceOnUse">
<stop stop-color="#EE00FF"/>
<stop offset="0.663888" stop-color="#EE5705"/>
<stop offset="1" stop-color="#EE05E7"/>
</linearGradient>
<linearGradient id="paint34_linear_197_1271" x1="-6.5" y1="7.5" x2="37.5" y2="41" gradientUnits="userSpaceOnUse">
<stop stop-color="#EE00FF"/>
<stop offset="0.663888" stop-color="#EE5705"/>
<stop offset="1" stop-color="#EE05E7"/>
</linearGradient>
<linearGradient id="paint35_linear_197_1271" x1="-6.5" y1="7.5" x2="37.5" y2="41" gradientUnits="userSpaceOnUse">
<stop stop-color="#EE00FF"/>
<stop offset="0.663888" stop-color="#EE5705"/>
<stop offset="1" stop-color="#EE05E7"/>
</linearGradient>
<linearGradient id="paint36_linear_197_1271" x1="-6.5" y1="7.5" x2="37.5" y2="41" gradientUnits="userSpaceOnUse">
<stop stop-color="#EE00FF"/>
<stop offset="0.663888" stop-color="#EE5705"/>
<stop offset="1" stop-color="#EE05E7"/>
</linearGradient>
<linearGradient id="paint37_linear_197_1271" x1="-6.5" y1="7.5" x2="37.5" y2="41" gradientUnits="userSpaceOnUse">
<stop stop-color="#EE00FF"/>
<stop offset="0.663888" stop-color="#EE5705"/>
<stop offset="1" stop-color="#EE05E7"/>
</linearGradient>
<linearGradient id="paint38_linear_197_1271" x1="-6.5" y1="7.5" x2="37.5" y2="41" gradientUnits="userSpaceOnUse">
<stop stop-color="#EE00FF"/>
<stop offset="0.663888" stop-color="#EE5705"/>
<stop offset="1" stop-color="#EE05E7"/>
</linearGradient>
<linearGradient id="paint39_linear_197_1271" x1="-6.5" y1="7.5" x2="37.5" y2="41" gradientUnits="userSpaceOnUse">
<stop stop-color="#EE00FF"/>
<stop offset="0.663888" stop-color="#EE5705"/>
<stop offset="1" stop-color="#EE05E7"/>
</linearGradient>
<linearGradient id="paint40_linear_197_1271" x1="-6.5" y1="7.5" x2="37.5" y2="41" gradientUnits="userSpaceOnUse">
<stop stop-color="#EE00FF"/>
<stop offset="0.663888" stop-color="#EE5705"/>
<stop offset="1" stop-color="#EE05E7"/>
</linearGradient>
<linearGradient id="paint41_linear_197_1271" x1="-6.5" y1="7.5" x2="37.5" y2="41" gradientUnits="userSpaceOnUse">
<stop stop-color="#EE00FF"/>
<stop offset="0.663888" stop-color="#EE5705"/>
<stop offset="1" stop-color="#EE05E7"/>
</linearGradient>
<linearGradient id="paint42_linear_197_1271" x1="-6.5" y1="7.5" x2="37.5" y2="41" gradientUnits="userSpaceOnUse">
<stop stop-color="#EE00FF"/>
<stop offset="0.663888" stop-color="#EE5705"/>
<stop offset="1" stop-color="#EE05E7"/>
</linearGradient>
<linearGradient id="paint43_linear_197_1271" x1="-6.5" y1="7.5" x2="37.5" y2="41" gradientUnits="userSpaceOnUse">
<stop stop-color="#EE00FF"/>
<stop offset="0.663888" stop-color="#EE5705"/>
<stop offset="1" stop-color="#EE05E7"/>
</linearGradient>
<linearGradient id="paint44_linear_197_1271" x1="-6.5" y1="7.5" x2="37.5" y2="41" gradientUnits="userSpaceOnUse">
<stop stop-color="#EE00FF"/>
<stop offset="0.663888" stop-color="#EE5705"/>
<stop offset="1" stop-color="#EE05E7"/>
</linearGradient>
<linearGradient id="paint45_linear_197_1271" x1="-6.5" y1="7.5" x2="37.5" y2="41" gradientUnits="userSpaceOnUse">
<stop stop-color="#EE00FF"/>
<stop offset="0.663888" stop-color="#EE5705"/>
<stop offset="1" stop-color="#EE05E7"/>
</linearGradient>
<linearGradient id="paint46_linear_197_1271" x1="-6.5" y1="7.5" x2="37.5" y2="41" gradientUnits="userSpaceOnUse">
<stop stop-color="#EE00FF"/>
<stop offset="0.663888" stop-color="#EE5705"/>
<stop offset="1" stop-color="#EE05E7"/>
</linearGradient>
<linearGradient id="paint47_linear_197_1271" x1="-6.5" y1="7.5" x2="37.5" y2="41" gradientUnits="userSpaceOnUse">
<stop stop-color="#EE00FF"/>
<stop offset="0.663888" stop-color="#EE5705"/>
<stop offset="1" stop-color="#EE05E7"/>
</linearGradient>
<linearGradient id="paint48_linear_197_1271" x1="-6.5" y1="7.5" x2="37.5" y2="41" gradientUnits="userSpaceOnUse">
<stop stop-color="#EE00FF"/>
<stop offset="0.663888" stop-color="#EE5705"/>
<stop offset="1" stop-color="#EE05E7"/>
</linearGradient>
<linearGradient id="paint49_linear_197_1271" x1="-6.5" y1="7.5" x2="37.5" y2="41" gradientUnits="userSpaceOnUse">
<stop stop-color="#EE00FF"/>
<stop offset="0.663888" stop-color="#EE5705"/>
<stop offset="1" stop-color="#EE05E7"/>
</linearGradient>
<linearGradient id="paint50_linear_197_1271" x1="-6.5" y1="7.5" x2="37.5" y2="41" gradientUnits="userSpaceOnUse">
<stop stop-color="#EE00FF"/>
<stop offset="0.663888" stop-color="#EE5705"/>
<stop offset="1" stop-color="#EE05E7"/>
</linearGradient>
<linearGradient id="paint51_linear_197_1271" x1="-6.5" y1="7.5" x2="37.5" y2="41" gradientUnits="userSpaceOnUse">
<stop stop-color="#EE00FF"/>
<stop offset="0.663888" stop-color="#EE5705"/>
<stop offset="1" stop-color="#EE05E7"/>
</linearGradient>
<linearGradient id="paint52_linear_197_1271" x1="-6.5" y1="7.5" x2="37.5" y2="41" gradientUnits="userSpaceOnUse">
<stop stop-color="#EE00FF"/>
<stop offset="0.663888" stop-color="#EE5705"/>
<stop offset="1" stop-color="#EE05E7"/>
</linearGradient>
<linearGradient id="paint53_linear_197_1271" x1="-6.5" y1="7.5" x2="37.5" y2="41" gradientUnits="userSpaceOnUse">
<stop stop-color="#EE00FF"/>
<stop offset="0.663888" stop-color="#EE5705"/>
<stop offset="1" stop-color="#EE05E7"/>
</linearGradient>
<linearGradient id="paint54_linear_197_1271" x1="-6.5" y1="7.5" x2="37.5" y2="41" gradientUnits="userSpaceOnUse">
<stop stop-color="#EE00FF"/>
<stop offset="0.663888" stop-color="#EE5705"/>
<stop offset="1" stop-color="#EE05E7"/>
</linearGradient>
<linearGradient id="paint55_linear_197_1271" x1="-6.5" y1="7.5" x2="37.5" y2="41" gradientUnits="userSpaceOnUse">
<stop stop-color="#EE00FF"/>
<stop offset="0.663888" stop-color="#EE5705"/>
<stop offset="1" stop-color="#EE05E7"/>
</linearGradient>
<linearGradient id="paint56_linear_197_1271" x1="-6.5" y1="7.5" x2="37.5" y2="41" gradientUnits="userSpaceOnUse">
<stop stop-color="#EE00FF"/>
<stop offset="0.663888" stop-color="#EE5705"/>
<stop offset="1" stop-color="#EE05E7"/>
</linearGradient>
<linearGradient id="paint57_linear_197_1271" x1="-6.5" y1="7.5" x2="37.5" y2="41" gradientUnits="userSpaceOnUse">
<stop stop-color="#EE00FF"/>
<stop offset="0.663888" stop-color="#EE5705"/>
<stop offset="1" stop-color="#EE05E7"/>
</linearGradient>
<linearGradient id="paint58_linear_197_1271" x1="-6.5" y1="7.5" x2="37.5" y2="41" gradientUnits="userSpaceOnUse">
<stop stop-color="#EE00FF"/>
<stop offset="0.663888" stop-color="#EE5705"/>
<stop offset="1" stop-color="#EE05E7"/>
</linearGradient>
<linearGradient id="paint59_linear_197_1271" x1="-6.5" y1="7.5" x2="37.5" y2="41" gradientUnits="userSpaceOnUse">
<stop stop-color="#EE00FF"/>
<stop offset="0.663888" stop-color="#EE5705"/>
<stop offset="1" stop-color="#EE05E7"/>
</linearGradient>
<linearGradient id="paint60_linear_197_1271" x1="-6.5" y1="7.5" x2="37.5" y2="41" gradientUnits="userSpaceOnUse">
<stop stop-color="#EE00FF"/>
<stop offset="0.663888" stop-color="#EE5705"/>
<stop offset="1" stop-color="#EE05E7"/>
</linearGradient>
<linearGradient id="paint61_linear_197_1271" x1="-6.5" y1="7.5" x2="37.5" y2="41" gradientUnits="userSpaceOnUse">
<stop stop-color="#EE00FF"/>
<stop offset="0.663888" stop-color="#EE5705"/>
<stop offset="1" stop-color="#EE05E7"/>
</linearGradient>
<linearGradient id="paint62_linear_197_1271" x1="-6.5" y1="7.5" x2="37.5" y2="41" gradientUnits="userSpaceOnUse">
<stop stop-color="#EE00FF"/>
<stop offset="0.663888" stop-color="#EE5705"/>
<stop offset="1" stop-color="#EE05E7"/>
</linearGradient>
<linearGradient id="paint63_linear_197_1271" x1="-6.5" y1="7.5" x2="37.5" y2="41" gradientUnits="userSpaceOnUse">
<stop stop-color="#EE00FF"/>
<stop offset="0.663888" stop-color="#EE5705"/>
<stop offset="1" stop-color="#EE05E7"/>
</linearGradient>
</defs>
</svg>
