<svg width="78" height="28" viewBox="0 0 78 28" fill="none" xmlns="http://www.w3.org/2000/svg">
<path d="M11.8265 8.77333H14.0398V11.04H11.8265V8.77333Z" fill="url(#paint0_linear_790_2332)"/>
<path d="M16.2532 8.77333H14.0398V11.04H16.2532V8.77333Z" fill="url(#paint1_linear_790_2332)"/>
<path d="M10.7598 7.36H12.9732V9.62667H10.7598V7.36Z" fill="url(#paint2_linear_790_2332)"/>
<path d="M17.3198 7.36H15.1065V9.62667H17.3198V7.36Z" fill="url(#paint3_linear_790_2332)"/>
<path d="M9.69318 5.92H11.9065V8.18667H9.69318V5.92Z" fill="url(#paint4_linear_790_2332)"/>
<path d="M18.3865 5.92H16.1732V8.18667H18.3865V5.92Z" fill="url(#paint5_linear_790_2332)"/>
<path d="M8.62651 4.50667H10.8398V6.77333H8.62651V4.50667Z" fill="url(#paint6_linear_790_2332)"/>
<path d="M19.4798 4.50667H17.2665V6.77333H19.4798V4.50667Z" fill="url(#paint7_linear_790_2332)"/>
<path d="M8.62651 4.50667H10.8398V6.77333H8.62651V4.50667Z" fill="url(#paint8_linear_790_2332)"/>
<path d="M19.4798 4.50667H17.2665V6.77333H19.4798V4.50667Z" fill="url(#paint9_linear_790_2332)"/>
<path d="M8.62651 2.26667H10.8398V4.53333H8.62651V2.26667Z" fill="url(#paint10_linear_790_2332)"/>
<path d="M10.8398 0H12.9732V2.26667H10.8398V0Z" fill="url(#paint11_linear_790_2332)"/>
<path d="M12.9732 0H15.1332V2.26667H12.9732V0Z" fill="url(#paint12_linear_790_2332)"/>
<path d="M15.1332 0H17.2665V2.26667H15.1332V0Z" fill="url(#paint13_linear_790_2332)"/>
<path d="M12.918 2.26667H15.1314V4.53333H12.918V2.26667Z" fill="url(#paint14_linear_790_2332)"/>
<path d="M19.4798 2.26667H17.2665V4.53333H19.4798V2.26667Z" fill="url(#paint15_linear_790_2332)"/>
<path d="M19.2799 11.7733V13.9867H17.0132V11.7733H19.2799Z" fill="url(#paint16_linear_790_2332)"/>
<path d="M19.2799 16.2V13.9867H17.0132V16.2H19.2799Z" fill="url(#paint17_linear_790_2332)"/>
<path d="M20.6932 10.7067V12.92H18.4266V10.7067H20.6932Z" fill="url(#paint18_linear_790_2332)"/>
<path d="M20.6932 17.2667V15.0533H18.4266V17.2667H20.6932Z" fill="url(#paint19_linear_790_2332)"/>
<path d="M22.1332 9.64V11.8533H19.8666V9.64L22.1332 9.64Z" fill="url(#paint20_linear_790_2332)"/>
<path d="M22.1332 18.3333V16.12H19.8666L19.8666 18.3333H22.1332Z" fill="url(#paint21_linear_790_2332)"/>
<path d="M23.5466 8.57333V10.7867H21.2799V8.57333H23.5466Z" fill="url(#paint22_linear_790_2332)"/>
<path d="M23.5466 19.4267V17.2133H21.2799V19.4267H23.5466Z" fill="url(#paint23_linear_790_2332)"/>
<path d="M23.5466 8.57333V10.7867H21.2799V8.57333H23.5466Z" fill="url(#paint24_linear_790_2332)"/>
<path d="M23.5466 19.4267V17.2133H21.2799V19.4267H23.5466Z" fill="url(#paint25_linear_790_2332)"/>
<path d="M25.7866 8.57333V10.7867H23.5199V8.57333H25.7866Z" fill="url(#paint26_linear_790_2332)"/>
<path d="M28.0532 10.7867V12.92H25.7866V10.7867H28.0532Z" fill="url(#paint27_linear_790_2332)"/>
<path d="M28.0532 12.92V15.08H25.7866V12.92H28.0532Z" fill="url(#paint28_linear_790_2332)"/>
<path d="M28.0532 15.08V17.2133H25.7866V15.08H28.0532Z" fill="url(#paint29_linear_790_2332)"/>
<path d="M25.7865 12.8649V15.0782H23.5198V12.8649H25.7865Z" fill="url(#paint30_linear_790_2332)"/>
<path d="M25.7866 19.4267V17.2133H23.5199V19.4267H25.7866Z" fill="url(#paint31_linear_790_2332)"/>
<path d="M11.8265 19.2267H14.0398V16.96H11.8265V19.2267Z" fill="url(#paint32_linear_790_2332)"/>
<path d="M16.2532 19.2267H14.0398V16.96H16.2532V19.2267Z" fill="url(#paint33_linear_790_2332)"/>
<path d="M10.7598 20.64H12.9732V18.3733H10.7598V20.64Z" fill="url(#paint34_linear_790_2332)"/>
<path d="M17.3198 20.64H15.1065V18.3733H17.3198V20.64Z" fill="url(#paint35_linear_790_2332)"/>
<path d="M9.69318 22.08H11.9065V19.8133H9.69318V22.08Z" fill="url(#paint36_linear_790_2332)"/>
<path d="M18.3865 22.08H16.1732V19.8133H18.3865V22.08Z" fill="url(#paint37_linear_790_2332)"/>
<path d="M8.62651 23.4933H10.8398V21.2267H8.62651V23.4933Z" fill="url(#paint38_linear_790_2332)"/>
<path d="M19.4798 23.4933H17.2665V21.2267H19.4798V23.4933Z" fill="url(#paint39_linear_790_2332)"/>
<path d="M8.62651 23.4933H10.8398V21.2267H8.62651V23.4933Z" fill="url(#paint40_linear_790_2332)"/>
<path d="M19.4798 23.4933H17.2665V21.2267H19.4798V23.4933Z" fill="url(#paint41_linear_790_2332)"/>
<path d="M8.62651 25.7333H10.8398V23.4667H8.62651V25.7333Z" fill="url(#paint42_linear_790_2332)"/>
<path d="M10.8398 28H12.9732V25.7333H10.8398V28Z" fill="url(#paint43_linear_790_2332)"/>
<path d="M12.9732 28H15.1332V25.7333H12.9732V28Z" fill="url(#paint44_linear_790_2332)"/>
<path d="M15.1332 28H17.2665V25.7333H15.1332V28Z" fill="url(#paint45_linear_790_2332)"/>
<path d="M12.918 25.7333H15.1314V23.4667H12.918V25.7333Z" fill="url(#paint46_linear_790_2332)"/>
<path d="M19.4798 25.7333H17.2665V23.4667H19.4798V25.7333Z" fill="url(#paint47_linear_790_2332)"/>
<path d="M8.82656 11.7733V13.9867H11.0932V11.7733H8.82656Z" fill="url(#paint48_linear_790_2332)"/>
<path d="M8.82656 16.2V13.9867H11.0932V16.2H8.82656Z" fill="url(#paint49_linear_790_2332)"/>
<path d="M7.41322 10.7067V12.92H9.67989V10.7067H7.41322Z" fill="url(#paint50_linear_790_2332)"/>
<path d="M7.41322 17.2667V15.0533H9.67989V17.2667H7.41322Z" fill="url(#paint51_linear_790_2332)"/>
<path d="M5.97322 9.64V11.8533H8.23989L8.23989 9.64H5.97322Z" fill="url(#paint52_linear_790_2332)"/>
<path d="M5.97322 18.3333L5.97322 16.12H8.23989V18.3333H5.97322Z" fill="url(#paint53_linear_790_2332)"/>
<path d="M4.55989 8.57334V10.7867H6.82656V8.57334H4.55989Z" fill="url(#paint54_linear_790_2332)"/>
<path d="M4.55989 19.4267V17.2133H6.82656L6.82656 19.4267H4.55989Z" fill="url(#paint55_linear_790_2332)"/>
<path d="M4.55989 8.57334V10.7867H6.82656V8.57334H4.55989Z" fill="url(#paint56_linear_790_2332)"/>
<path d="M4.55989 19.4267V17.2133H6.82656L6.82656 19.4267H4.55989Z" fill="url(#paint57_linear_790_2332)"/>
<path d="M2.31989 8.57334V10.7867H4.58656V8.57334H2.31989Z" fill="url(#paint58_linear_790_2332)"/>
<path d="M0.0532228 10.7867L0.0532227 12.92H2.31989V10.7867H0.0532228Z" fill="url(#paint59_linear_790_2332)"/>
<path d="M0.0532227 12.92L0.0532227 15.08H2.31989V12.92H0.0532227Z" fill="url(#paint60_linear_790_2332)"/>
<path d="M0.0532227 15.08L0.0532227 17.2133H2.31989V15.08H0.0532227Z" fill="url(#paint61_linear_790_2332)"/>
<path d="M2.31995 12.8649V15.0782H4.58661V12.8649H2.31995Z" fill="url(#paint62_linear_790_2332)"/>
<path d="M2.31989 19.4267V17.2133H4.58656V19.4267H2.31989Z" fill="url(#paint63_linear_790_2332)"/>
<path d="M32.8532 19.5V8.3H39.2532V9.1H40.0532V9.9H40.8532V13.1H40.0532V13.9H39.2532V14.7H34.4532V19.5H32.8532ZM34.4532 13.1H38.4532V12.3H39.2532V10.7H38.4532V9.9H34.4532V13.1ZM42.447 19.5V17.9H44.047V9.9H42.447V8.3H47.247V9.9H45.647V17.9H47.247V19.5H42.447ZM55.2532 19.5V17.1H54.4532V16.3H53.6532V15.5H52.0532V16.3H51.2532V17.1H50.4532V19.5H48.8532V16.3H49.6532V15.5H50.4532V14.7H51.2532V13.1H50.4532V12.3H49.6532V11.5H48.8532V8.3H50.4532V10.7H51.2532V11.5H52.0532V12.3H53.6532V11.5H54.4532V10.7H55.2532V8.3H56.8532V11.5H56.0532V12.3H55.2532V13.1H54.4532V14.7H55.2532V15.5H56.0532V16.3H56.8532V19.5H55.2532ZM66.447 19.5H58.447V8.3H66.447V9.9H60.047V13.1H64.847V14.7H60.047V17.9H66.447V19.5ZM71.2407 19.5V13.9H70.4407V13.1H69.6407V12.3H68.8407V11.5H68.0407V8.3H69.6407V10.7H70.4407V11.5H71.2407V12.3H72.8407V11.5H73.6407V10.7H74.4407V8.3H76.0407V11.5H75.2407V12.3H74.4407V13.1H73.6407V13.9H72.8407V19.5H71.2407Z" fill="white"/>
<defs>
<linearGradient id="paint0_linear_790_2332" x1="-4.34782" y1="5.07813" x2="25.4438" y2="27.7604" gradientUnits="userSpaceOnUse">
<stop stop-color="#EE00FF"/>
<stop offset="0.663888" stop-color="#EE5705"/>
<stop offset="1" stop-color="#EE05E7"/>
</linearGradient>
<linearGradient id="paint1_linear_790_2332" x1="-4.34782" y1="5.07813" x2="25.4438" y2="27.7604" gradientUnits="userSpaceOnUse">
<stop stop-color="#EE00FF"/>
<stop offset="0.663888" stop-color="#EE5705"/>
<stop offset="1" stop-color="#EE05E7"/>
</linearGradient>
<linearGradient id="paint2_linear_790_2332" x1="-4.34782" y1="5.07813" x2="25.4438" y2="27.7604" gradientUnits="userSpaceOnUse">
<stop stop-color="#EE00FF"/>
<stop offset="0.663888" stop-color="#EE5705"/>
<stop offset="1" stop-color="#EE05E7"/>
</linearGradient>
<linearGradient id="paint3_linear_790_2332" x1="-4.34782" y1="5.07813" x2="25.4438" y2="27.7604" gradientUnits="userSpaceOnUse">
<stop stop-color="#EE00FF"/>
<stop offset="0.663888" stop-color="#EE5705"/>
<stop offset="1" stop-color="#EE05E7"/>
</linearGradient>
<linearGradient id="paint4_linear_790_2332" x1="-4.34782" y1="5.07813" x2="25.4438" y2="27.7604" gradientUnits="userSpaceOnUse">
<stop stop-color="#EE00FF"/>
<stop offset="0.663888" stop-color="#EE5705"/>
<stop offset="1" stop-color="#EE05E7"/>
</linearGradient>
<linearGradient id="paint5_linear_790_2332" x1="-4.34782" y1="5.07813" x2="25.4438" y2="27.7604" gradientUnits="userSpaceOnUse">
<stop stop-color="#EE00FF"/>
<stop offset="0.663888" stop-color="#EE5705"/>
<stop offset="1" stop-color="#EE05E7"/>
</linearGradient>
<linearGradient id="paint6_linear_790_2332" x1="-4.34782" y1="5.07813" x2="25.4438" y2="27.7604" gradientUnits="userSpaceOnUse">
<stop stop-color="#EE00FF"/>
<stop offset="0.663888" stop-color="#EE5705"/>
<stop offset="1" stop-color="#EE05E7"/>
</linearGradient>
<linearGradient id="paint7_linear_790_2332" x1="-4.34782" y1="5.07813" x2="25.4438" y2="27.7604" gradientUnits="userSpaceOnUse">
<stop stop-color="#EE00FF"/>
<stop offset="0.663888" stop-color="#EE5705"/>
<stop offset="1" stop-color="#EE05E7"/>
</linearGradient>
<linearGradient id="paint8_linear_790_2332" x1="-4.34782" y1="5.07813" x2="25.4438" y2="27.7604" gradientUnits="userSpaceOnUse">
<stop stop-color="#EE00FF"/>
<stop offset="0.663888" stop-color="#EE5705"/>
<stop offset="1" stop-color="#EE05E7"/>
</linearGradient>
<linearGradient id="paint9_linear_790_2332" x1="-4.34782" y1="5.07813" x2="25.4438" y2="27.7604" gradientUnits="userSpaceOnUse">
<stop stop-color="#EE00FF"/>
<stop offset="0.663888" stop-color="#EE5705"/>
<stop offset="1" stop-color="#EE05E7"/>
</linearGradient>
<linearGradient id="paint10_linear_790_2332" x1="-4.34782" y1="5.07813" x2="25.4438" y2="27.7604" gradientUnits="userSpaceOnUse">
<stop stop-color="#EE00FF"/>
<stop offset="0.663888" stop-color="#EE5705"/>
<stop offset="1" stop-color="#EE05E7"/>
</linearGradient>
<linearGradient id="paint11_linear_790_2332" x1="-4.34782" y1="5.07813" x2="25.4438" y2="27.7604" gradientUnits="userSpaceOnUse">
<stop stop-color="#EE00FF"/>
<stop offset="0.663888" stop-color="#EE5705"/>
<stop offset="1" stop-color="#EE05E7"/>
</linearGradient>
<linearGradient id="paint12_linear_790_2332" x1="-4.34782" y1="5.07813" x2="25.4438" y2="27.7604" gradientUnits="userSpaceOnUse">
<stop stop-color="#EE00FF"/>
<stop offset="0.663888" stop-color="#EE5705"/>
<stop offset="1" stop-color="#EE05E7"/>
</linearGradient>
<linearGradient id="paint13_linear_790_2332" x1="-4.34782" y1="5.07813" x2="25.4438" y2="27.7604" gradientUnits="userSpaceOnUse">
<stop stop-color="#EE00FF"/>
<stop offset="0.663888" stop-color="#EE5705"/>
<stop offset="1" stop-color="#EE05E7"/>
</linearGradient>
<linearGradient id="paint14_linear_790_2332" x1="-4.34782" y1="5.07813" x2="25.4438" y2="27.7604" gradientUnits="userSpaceOnUse">
<stop stop-color="#EE00FF"/>
<stop offset="0.663888" stop-color="#EE5705"/>
<stop offset="1" stop-color="#EE05E7"/>
</linearGradient>
<linearGradient id="paint15_linear_790_2332" x1="-4.34782" y1="5.07813" x2="25.4438" y2="27.7604" gradientUnits="userSpaceOnUse">
<stop stop-color="#EE00FF"/>
<stop offset="0.663888" stop-color="#EE5705"/>
<stop offset="1" stop-color="#EE05E7"/>
</linearGradient>
<linearGradient id="paint16_linear_790_2332" x1="-4.34782" y1="5.07813" x2="25.4438" y2="27.7604" gradientUnits="userSpaceOnUse">
<stop stop-color="#EE00FF"/>
<stop offset="0.663888" stop-color="#EE5705"/>
<stop offset="1" stop-color="#EE05E7"/>
</linearGradient>
<linearGradient id="paint17_linear_790_2332" x1="-4.34782" y1="5.07813" x2="25.4438" y2="27.7604" gradientUnits="userSpaceOnUse">
<stop stop-color="#EE00FF"/>
<stop offset="0.663888" stop-color="#EE5705"/>
<stop offset="1" stop-color="#EE05E7"/>
</linearGradient>
<linearGradient id="paint18_linear_790_2332" x1="-4.34782" y1="5.07813" x2="25.4438" y2="27.7604" gradientUnits="userSpaceOnUse">
<stop stop-color="#EE00FF"/>
<stop offset="0.663888" stop-color="#EE5705"/>
<stop offset="1" stop-color="#EE05E7"/>
</linearGradient>
<linearGradient id="paint19_linear_790_2332" x1="-4.34782" y1="5.07813" x2="25.4438" y2="27.7604" gradientUnits="userSpaceOnUse">
<stop stop-color="#EE00FF"/>
<stop offset="0.663888" stop-color="#EE5705"/>
<stop offset="1" stop-color="#EE05E7"/>
</linearGradient>
<linearGradient id="paint20_linear_790_2332" x1="-4.34782" y1="5.07813" x2="25.4438" y2="27.7604" gradientUnits="userSpaceOnUse">
<stop stop-color="#EE00FF"/>
<stop offset="0.663888" stop-color="#EE5705"/>
<stop offset="1" stop-color="#EE05E7"/>
</linearGradient>
<linearGradient id="paint21_linear_790_2332" x1="-4.34782" y1="5.07813" x2="25.4438" y2="27.7604" gradientUnits="userSpaceOnUse">
<stop stop-color="#EE00FF"/>
<stop offset="0.663888" stop-color="#EE5705"/>
<stop offset="1" stop-color="#EE05E7"/>
</linearGradient>
<linearGradient id="paint22_linear_790_2332" x1="-4.34782" y1="5.07813" x2="25.4438" y2="27.7604" gradientUnits="userSpaceOnUse">
<stop stop-color="#EE00FF"/>
<stop offset="0.663888" stop-color="#EE5705"/>
<stop offset="1" stop-color="#EE05E7"/>
</linearGradient>
<linearGradient id="paint23_linear_790_2332" x1="-4.34782" y1="5.07813" x2="25.4438" y2="27.7604" gradientUnits="userSpaceOnUse">
<stop stop-color="#EE00FF"/>
<stop offset="0.663888" stop-color="#EE5705"/>
<stop offset="1" stop-color="#EE05E7"/>
</linearGradient>
<linearGradient id="paint24_linear_790_2332" x1="-4.34782" y1="5.07813" x2="25.4438" y2="27.7604" gradientUnits="userSpaceOnUse">
<stop stop-color="#EE00FF"/>
<stop offset="0.663888" stop-color="#EE5705"/>
<stop offset="1" stop-color="#EE05E7"/>
</linearGradient>
<linearGradient id="paint25_linear_790_2332" x1="-4.34782" y1="5.07813" x2="25.4438" y2="27.7604" gradientUnits="userSpaceOnUse">
<stop stop-color="#EE00FF"/>
<stop offset="0.663888" stop-color="#EE5705"/>
<stop offset="1" stop-color="#EE05E7"/>
</linearGradient>
<linearGradient id="paint26_linear_790_2332" x1="-4.34782" y1="5.07813" x2="25.4438" y2="27.7604" gradientUnits="userSpaceOnUse">
<stop stop-color="#EE00FF"/>
<stop offset="0.663888" stop-color="#EE5705"/>
<stop offset="1" stop-color="#EE05E7"/>
</linearGradient>
<linearGradient id="paint27_linear_790_2332" x1="-4.34782" y1="5.07813" x2="25.4438" y2="27.7604" gradientUnits="userSpaceOnUse">
<stop stop-color="#EE00FF"/>
<stop offset="0.663888" stop-color="#EE5705"/>
<stop offset="1" stop-color="#EE05E7"/>
</linearGradient>
<linearGradient id="paint28_linear_790_2332" x1="-4.34782" y1="5.07813" x2="25.4438" y2="27.7604" gradientUnits="userSpaceOnUse">
<stop stop-color="#EE00FF"/>
<stop offset="0.663888" stop-color="#EE5705"/>
<stop offset="1" stop-color="#EE05E7"/>
</linearGradient>
<linearGradient id="paint29_linear_790_2332" x1="-4.34782" y1="5.07813" x2="25.4438" y2="27.7604" gradientUnits="userSpaceOnUse">
<stop stop-color="#EE00FF"/>
<stop offset="0.663888" stop-color="#EE5705"/>
<stop offset="1" stop-color="#EE05E7"/>
</linearGradient>
<linearGradient id="paint30_linear_790_2332" x1="-4.34782" y1="5.07813" x2="25.4438" y2="27.7604" gradientUnits="userSpaceOnUse">
<stop stop-color="#EE00FF"/>
<stop offset="0.663888" stop-color="#EE5705"/>
<stop offset="1" stop-color="#EE05E7"/>
</linearGradient>
<linearGradient id="paint31_linear_790_2332" x1="-4.34782" y1="5.07813" x2="25.4438" y2="27.7604" gradientUnits="userSpaceOnUse">
<stop stop-color="#EE00FF"/>
<stop offset="0.663888" stop-color="#EE5705"/>
<stop offset="1" stop-color="#EE05E7"/>
</linearGradient>
<linearGradient id="paint32_linear_790_2332" x1="-4.34782" y1="5.07813" x2="25.4438" y2="27.7604" gradientUnits="userSpaceOnUse">
<stop stop-color="#EE00FF"/>
<stop offset="0.663888" stop-color="#EE5705"/>
<stop offset="1" stop-color="#EE05E7"/>
</linearGradient>
<linearGradient id="paint33_linear_790_2332" x1="-4.34782" y1="5.07813" x2="25.4438" y2="27.7604" gradientUnits="userSpaceOnUse">
<stop stop-color="#EE00FF"/>
<stop offset="0.663888" stop-color="#EE5705"/>
<stop offset="1" stop-color="#EE05E7"/>
</linearGradient>
<linearGradient id="paint34_linear_790_2332" x1="-4.34782" y1="5.07813" x2="25.4438" y2="27.7604" gradientUnits="userSpaceOnUse">
<stop stop-color="#EE00FF"/>
<stop offset="0.663888" stop-color="#EE5705"/>
<stop offset="1" stop-color="#EE05E7"/>
</linearGradient>
<linearGradient id="paint35_linear_790_2332" x1="-4.34782" y1="5.07813" x2="25.4438" y2="27.7604" gradientUnits="userSpaceOnUse">
<stop stop-color="#EE00FF"/>
<stop offset="0.663888" stop-color="#EE5705"/>
<stop offset="1" stop-color="#EE05E7"/>
</linearGradient>
<linearGradient id="paint36_linear_790_2332" x1="-4.34782" y1="5.07813" x2="25.4438" y2="27.7604" gradientUnits="userSpaceOnUse">
<stop stop-color="#EE00FF"/>
<stop offset="0.663888" stop-color="#EE5705"/>
<stop offset="1" stop-color="#EE05E7"/>
</linearGradient>
<linearGradient id="paint37_linear_790_2332" x1="-4.34782" y1="5.07813" x2="25.4438" y2="27.7604" gradientUnits="userSpaceOnUse">
<stop stop-color="#EE00FF"/>
<stop offset="0.663888" stop-color="#EE5705"/>
<stop offset="1" stop-color="#EE05E7"/>
</linearGradient>
<linearGradient id="paint38_linear_790_2332" x1="-4.34782" y1="5.07813" x2="25.4438" y2="27.7604" gradientUnits="userSpaceOnUse">
<stop stop-color="#EE00FF"/>
<stop offset="0.663888" stop-color="#EE5705"/>
<stop offset="1" stop-color="#EE05E7"/>
</linearGradient>
<linearGradient id="paint39_linear_790_2332" x1="-4.34782" y1="5.07813" x2="25.4438" y2="27.7604" gradientUnits="userSpaceOnUse">
<stop stop-color="#EE00FF"/>
<stop offset="0.663888" stop-color="#EE5705"/>
<stop offset="1" stop-color="#EE05E7"/>
</linearGradient>
<linearGradient id="paint40_linear_790_2332" x1="-4.34782" y1="5.07813" x2="25.4438" y2="27.7604" gradientUnits="userSpaceOnUse">
<stop stop-color="#EE00FF"/>
<stop offset="0.663888" stop-color="#EE5705"/>
<stop offset="1" stop-color="#EE05E7"/>
</linearGradient>
<linearGradient id="paint41_linear_790_2332" x1="-4.34782" y1="5.07813" x2="25.4438" y2="27.7604" gradientUnits="userSpaceOnUse">
<stop stop-color="#EE00FF"/>
<stop offset="0.663888" stop-color="#EE5705"/>
<stop offset="1" stop-color="#EE05E7"/>
</linearGradient>
<linearGradient id="paint42_linear_790_2332" x1="-4.34782" y1="5.07813" x2="25.4438" y2="27.7604" gradientUnits="userSpaceOnUse">
<stop stop-color="#EE00FF"/>
<stop offset="0.663888" stop-color="#EE5705"/>
<stop offset="1" stop-color="#EE05E7"/>
</linearGradient>
<linearGradient id="paint43_linear_790_2332" x1="-4.34782" y1="5.07813" x2="25.4438" y2="27.7604" gradientUnits="userSpaceOnUse">
<stop stop-color="#EE00FF"/>
<stop offset="0.663888" stop-color="#EE5705"/>
<stop offset="1" stop-color="#EE05E7"/>
</linearGradient>
<linearGradient id="paint44_linear_790_2332" x1="-4.34782" y1="5.07813" x2="25.4438" y2="27.7604" gradientUnits="userSpaceOnUse">
<stop stop-color="#EE00FF"/>
<stop offset="0.663888" stop-color="#EE5705"/>
<stop offset="1" stop-color="#EE05E7"/>
</linearGradient>
<linearGradient id="paint45_linear_790_2332" x1="-4.34782" y1="5.07813" x2="25.4438" y2="27.7604" gradientUnits="userSpaceOnUse">
<stop stop-color="#EE00FF"/>
<stop offset="0.663888" stop-color="#EE5705"/>
<stop offset="1" stop-color="#EE05E7"/>
</linearGradient>
<linearGradient id="paint46_linear_790_2332" x1="-4.34782" y1="5.07813" x2="25.4438" y2="27.7604" gradientUnits="userSpaceOnUse">
<stop stop-color="#EE00FF"/>
<stop offset="0.663888" stop-color="#EE5705"/>
<stop offset="1" stop-color="#EE05E7"/>
</linearGradient>
<linearGradient id="paint47_linear_790_2332" x1="-4.34782" y1="5.07813" x2="25.4438" y2="27.7604" gradientUnits="userSpaceOnUse">
<stop stop-color="#EE00FF"/>
<stop offset="0.663888" stop-color="#EE5705"/>
<stop offset="1" stop-color="#EE05E7"/>
</linearGradient>
<linearGradient id="paint48_linear_790_2332" x1="-4.34782" y1="5.07813" x2="25.4438" y2="27.7604" gradientUnits="userSpaceOnUse">
<stop stop-color="#EE00FF"/>
<stop offset="0.663888" stop-color="#EE5705"/>
<stop offset="1" stop-color="#EE05E7"/>
</linearGradient>
<linearGradient id="paint49_linear_790_2332" x1="-4.34782" y1="5.07813" x2="25.4438" y2="27.7604" gradientUnits="userSpaceOnUse">
<stop stop-color="#EE00FF"/>
<stop offset="0.663888" stop-color="#EE5705"/>
<stop offset="1" stop-color="#EE05E7"/>
</linearGradient>
<linearGradient id="paint50_linear_790_2332" x1="-4.34782" y1="5.07813" x2="25.4438" y2="27.7604" gradientUnits="userSpaceOnUse">
<stop stop-color="#EE00FF"/>
<stop offset="0.663888" stop-color="#EE5705"/>
<stop offset="1" stop-color="#EE05E7"/>
</linearGradient>
<linearGradient id="paint51_linear_790_2332" x1="-4.34782" y1="5.07813" x2="25.4438" y2="27.7604" gradientUnits="userSpaceOnUse">
<stop stop-color="#EE00FF"/>
<stop offset="0.663888" stop-color="#EE5705"/>
<stop offset="1" stop-color="#EE05E7"/>
</linearGradient>
<linearGradient id="paint52_linear_790_2332" x1="-4.34782" y1="5.07813" x2="25.4438" y2="27.7604" gradientUnits="userSpaceOnUse">
<stop stop-color="#EE00FF"/>
<stop offset="0.663888" stop-color="#EE5705"/>
<stop offset="1" stop-color="#EE05E7"/>
</linearGradient>
<linearGradient id="paint53_linear_790_2332" x1="-4.34782" y1="5.07813" x2="25.4438" y2="27.7604" gradientUnits="userSpaceOnUse">
<stop stop-color="#EE00FF"/>
<stop offset="0.663888" stop-color="#EE5705"/>
<stop offset="1" stop-color="#EE05E7"/>
</linearGradient>
<linearGradient id="paint54_linear_790_2332" x1="-4.34782" y1="5.07813" x2="25.4438" y2="27.7604" gradientUnits="userSpaceOnUse">
<stop stop-color="#EE00FF"/>
<stop offset="0.663888" stop-color="#EE5705"/>
<stop offset="1" stop-color="#EE05E7"/>
</linearGradient>
<linearGradient id="paint55_linear_790_2332" x1="-4.34782" y1="5.07813" x2="25.4438" y2="27.7604" gradientUnits="userSpaceOnUse">
<stop stop-color="#EE00FF"/>
<stop offset="0.663888" stop-color="#EE5705"/>
<stop offset="1" stop-color="#EE05E7"/>
</linearGradient>
<linearGradient id="paint56_linear_790_2332" x1="-4.34782" y1="5.07813" x2="25.4438" y2="27.7604" gradientUnits="userSpaceOnUse">
<stop stop-color="#EE00FF"/>
<stop offset="0.663888" stop-color="#EE5705"/>
<stop offset="1" stop-color="#EE05E7"/>
</linearGradient>
<linearGradient id="paint57_linear_790_2332" x1="-4.34782" y1="5.07813" x2="25.4438" y2="27.7604" gradientUnits="userSpaceOnUse">
<stop stop-color="#EE00FF"/>
<stop offset="0.663888" stop-color="#EE5705"/>
<stop offset="1" stop-color="#EE05E7"/>
</linearGradient>
<linearGradient id="paint58_linear_790_2332" x1="-4.34782" y1="5.07813" x2="25.4438" y2="27.7604" gradientUnits="userSpaceOnUse">
<stop stop-color="#EE00FF"/>
<stop offset="0.663888" stop-color="#EE5705"/>
<stop offset="1" stop-color="#EE05E7"/>
</linearGradient>
<linearGradient id="paint59_linear_790_2332" x1="-4.34782" y1="5.07813" x2="25.4438" y2="27.7604" gradientUnits="userSpaceOnUse">
<stop stop-color="#EE00FF"/>
<stop offset="0.663888" stop-color="#EE5705"/>
<stop offset="1" stop-color="#EE05E7"/>
</linearGradient>
<linearGradient id="paint60_linear_790_2332" x1="-4.34782" y1="5.07813" x2="25.4438" y2="27.7604" gradientUnits="userSpaceOnUse">
<stop stop-color="#EE00FF"/>
<stop offset="0.663888" stop-color="#EE5705"/>
<stop offset="1" stop-color="#EE05E7"/>
</linearGradient>
<linearGradient id="paint61_linear_790_2332" x1="-4.34782" y1="5.07813" x2="25.4438" y2="27.7604" gradientUnits="userSpaceOnUse">
<stop stop-color="#EE00FF"/>
<stop offset="0.663888" stop-color="#EE5705"/>
<stop offset="1" stop-color="#EE05E7"/>
</linearGradient>
<linearGradient id="paint62_linear_790_2332" x1="-4.34782" y1="5.07813" x2="25.4438" y2="27.7604" gradientUnits="userSpaceOnUse">
<stop stop-color="#EE00FF"/>
<stop offset="0.663888" stop-color="#EE5705"/>
<stop offset="1" stop-color="#EE05E7"/>
</linearGradient>
<linearGradient id="paint63_linear_790_2332" x1="-4.34782" y1="5.07813" x2="25.4438" y2="27.7604" gradientUnits="userSpaceOnUse">
<stop stop-color="#EE00FF"/>
<stop offset="0.663888" stop-color="#EE5705"/>
<stop offset="1" stop-color="#EE05E7"/>
</linearGradient>
</defs>
</svg>
