<svg width="178" height="42" viewBox="0 0 178 42" fill="none" xmlns="http://www.w3.org/2000/svg">
<path d="M17.3882 12.9575H20.6572V16.3052H17.3882V12.9575Z" fill="url(#paint0_linear_414_498)"/>
<path d="M23.9261 12.9575H20.6572V16.3052H23.9261V12.9575Z" fill="url(#paint1_linear_414_498)"/>
<path d="M15.8129 10.8702H19.0818V14.2178H15.8129V10.8702Z" fill="url(#paint2_linear_414_498)"/>
<path d="M25.5015 10.8702H22.2326V14.2178H25.5015V10.8702Z" fill="url(#paint3_linear_414_498)"/>
<path d="M14.2375 8.74338H17.5064V12.0911H14.2375V8.74338Z" fill="url(#paint4_linear_414_498)"/>
<path d="M27.0769 8.74338H23.8079V12.0911H27.0769V8.74338Z" fill="url(#paint5_linear_414_498)"/>
<path d="M12.6621 6.656H15.931V10.0037H12.6621V6.656Z" fill="url(#paint6_linear_414_498)"/>
<path d="M28.6916 6.656H25.4227V10.0037H28.6916V6.656Z" fill="url(#paint7_linear_414_498)"/>
<path d="M12.6621 6.656H15.931V10.0037H12.6621V6.656Z" fill="url(#paint8_linear_414_498)"/>
<path d="M28.6916 6.656H25.4227V10.0037H28.6916V6.656Z" fill="url(#paint9_linear_414_498)"/>
<path d="M12.6621 3.34769H15.931V6.69538H12.6621V3.34769Z" fill="url(#paint10_linear_414_498)"/>
<path d="M15.931 0H19.0818V3.34769H15.931V0Z" fill="url(#paint11_linear_414_498)"/>
<path d="M19.0818 0H22.2719V3.34769H19.0818V0Z" fill="url(#paint12_linear_414_498)"/>
<path d="M22.2719 0H25.4227V3.34769H22.2719V0Z" fill="url(#paint13_linear_414_498)"/>
<path d="M19.0003 3.34769H22.2692V6.69538H19.0003V3.34769Z" fill="url(#paint14_linear_414_498)"/>
<path d="M28.6916 3.34769H25.4227V6.69538H28.6916V3.34769Z" fill="url(#paint15_linear_414_498)"/>
<path d="M28.3963 17.3883V20.6572H25.0486V17.3883H28.3963Z" fill="url(#paint16_linear_414_498)"/>
<path d="M28.3963 23.9261V20.6572H25.0486V23.9261H28.3963Z" fill="url(#paint17_linear_414_498)"/>
<path d="M30.4837 15.8129V19.0818H27.136V15.8129H30.4837Z" fill="url(#paint18_linear_414_498)"/>
<path d="M30.4837 25.5015V22.2326H27.136V25.5015H30.4837Z" fill="url(#paint19_linear_414_498)"/>
<path d="M32.6105 14.2375V17.5065H29.2628V14.2375L32.6105 14.2375Z" fill="url(#paint20_linear_414_498)"/>
<path d="M32.6105 27.0769V23.808H29.2628L29.2628 27.0769H32.6105Z" fill="url(#paint21_linear_414_498)"/>
<path d="M34.6978 12.6622V15.9311H31.3502V12.6622H34.6978Z" fill="url(#paint22_linear_414_498)"/>
<path d="M34.6978 28.6917V25.4228H31.3502V28.6917H34.6978Z" fill="url(#paint23_linear_414_498)"/>
<path d="M34.6978 12.6622V15.9311H31.3502V12.6622H34.6978Z" fill="url(#paint24_linear_414_498)"/>
<path d="M34.6978 28.6917V25.4228H31.3502V28.6917H34.6978Z" fill="url(#paint25_linear_414_498)"/>
<path d="M38.0061 12.6622V15.9311H34.6585V12.6622H38.0061Z" fill="url(#paint26_linear_414_498)"/>
<path d="M41.3538 15.9311V19.0818H38.0061V15.9311H41.3538Z" fill="url(#paint27_linear_414_498)"/>
<path d="M41.3538 19.0818V22.272H38.0061V19.0818H41.3538Z" fill="url(#paint28_linear_414_498)"/>
<path d="M41.3538 22.272V25.4228H38.0061V22.272H41.3538Z" fill="url(#paint29_linear_414_498)"/>
<path d="M38.0061 19.0004V22.2693H34.6584V19.0004H38.0061Z" fill="url(#paint30_linear_414_498)"/>
<path d="M38.0061 28.6917V25.4228H34.6585V28.6917H38.0061Z" fill="url(#paint31_linear_414_498)"/>
<path d="M17.3882 28.3963H20.6572V25.0486H17.3882V28.3963Z" fill="url(#paint32_linear_414_498)"/>
<path d="M23.9261 28.3963H20.6572V25.0486H23.9261V28.3963Z" fill="url(#paint33_linear_414_498)"/>
<path d="M15.8129 30.4837H19.0818V27.136H15.8129V30.4837Z" fill="url(#paint34_linear_414_498)"/>
<path d="M25.5015 30.4837H22.2326V27.136H25.5015V30.4837Z" fill="url(#paint35_linear_414_498)"/>
<path d="M14.2375 32.6105H17.5064V29.2628H14.2375V32.6105Z" fill="url(#paint36_linear_414_498)"/>
<path d="M27.0769 32.6105H23.8079V29.2628H27.0769V32.6105Z" fill="url(#paint37_linear_414_498)"/>
<path d="M12.6621 34.6978H15.931V31.3502H12.6621V34.6978Z" fill="url(#paint38_linear_414_498)"/>
<path d="M28.6916 34.6978H25.4227V31.3502H28.6916V34.6978Z" fill="url(#paint39_linear_414_498)"/>
<path d="M12.6621 34.6978H15.931V31.3502H12.6621V34.6978Z" fill="url(#paint40_linear_414_498)"/>
<path d="M28.6916 34.6978H25.4227V31.3502H28.6916V34.6978Z" fill="url(#paint41_linear_414_498)"/>
<path d="M12.6621 38.0061H15.931V34.6585H12.6621V38.0061Z" fill="url(#paint42_linear_414_498)"/>
<path d="M15.931 41.3538H19.0818V38.0061H15.931V41.3538Z" fill="url(#paint43_linear_414_498)"/>
<path d="M19.0818 41.3538H22.2719V38.0061H19.0818V41.3538Z" fill="url(#paint44_linear_414_498)"/>
<path d="M22.2719 41.3538H25.4227V38.0061H22.2719V41.3538Z" fill="url(#paint45_linear_414_498)"/>
<path d="M19.0003 38.0061H22.2692V34.6585H19.0003V38.0061Z" fill="url(#paint46_linear_414_498)"/>
<path d="M28.6916 38.0061H25.4227V34.6585H28.6916V38.0061Z" fill="url(#paint47_linear_414_498)"/>
<path d="M12.9575 17.3883V20.6572H16.3052V17.3883H12.9575Z" fill="url(#paint48_linear_414_498)"/>
<path d="M12.9575 23.9262V20.6572H16.3052V23.9262H12.9575Z" fill="url(#paint49_linear_414_498)"/>
<path d="M10.8702 15.8129V19.0819H14.2178L14.2178 15.8129H10.8702Z" fill="url(#paint50_linear_414_498)"/>
<path d="M10.8702 25.5015V22.2326H14.2178V25.5015H10.8702Z" fill="url(#paint51_linear_414_498)"/>
<path d="M8.74338 14.2375V17.5065H12.0911L12.0911 14.2375H8.74338Z" fill="url(#paint52_linear_414_498)"/>
<path d="M8.74338 27.0769L8.74338 23.808H12.0911V27.0769H8.74338Z" fill="url(#paint53_linear_414_498)"/>
<path d="M6.656 12.6622V15.9311H10.0037V12.6622H6.656Z" fill="url(#paint54_linear_414_498)"/>
<path d="M6.656 28.6917V25.4228H10.0037L10.0037 28.6917H6.656Z" fill="url(#paint55_linear_414_498)"/>
<path d="M6.656 12.6622V15.9311H10.0037V12.6622H6.656Z" fill="url(#paint56_linear_414_498)"/>
<path d="M6.656 28.6917V25.4228H10.0037L10.0037 28.6917H6.656Z" fill="url(#paint57_linear_414_498)"/>
<path d="M3.34769 12.6622L3.34769 15.9311H6.69538V12.6622H3.34769Z" fill="url(#paint58_linear_414_498)"/>
<path d="M1.39446e-07 15.9311L1.72157e-09 19.0819H3.34769V15.9311H1.39446e-07Z" fill="url(#paint59_linear_414_498)"/>
<path d="M1.72157e-09 19.0819L0 22.272H3.34769V19.0819H1.72157e-09Z" fill="url(#paint60_linear_414_498)"/>
<path d="M0 22.272L1.72157e-09 25.4228H3.34769V22.272H0Z" fill="url(#paint61_linear_414_498)"/>
<path d="M3.34778 19.0004V22.2693H6.69547V19.0004H3.34778Z" fill="url(#paint62_linear_414_498)"/>
<path d="M3.34769 28.6917V25.4228H6.69538L6.69538 28.6917H3.34769Z" fill="url(#paint63_linear_414_498)"/>
<path d="M50.5538 29.1768V12.3768H60.1538V13.5768H61.3538V14.7768H62.5538V19.5768H61.3538V20.7768H60.1538V21.9768H52.9538V29.1768H50.5538ZM52.9538 19.5768H58.9538V18.3768H60.1538V15.9768H58.9538V14.7768H52.9538V19.5768ZM64.9444 29.1768V26.7768H67.3444V14.7768H64.9444V12.3768H72.1444V14.7768H69.7444V26.7768H72.1444V29.1768H64.9444ZM84.1538 29.1768V25.5768H82.9538V24.3768H81.7538V23.1768H79.3538V24.3768H78.1538V25.5768H76.9538V29.1768H74.5538V24.3768H75.7538V23.1768H76.9538V21.9768H78.1538V19.5768H76.9538V18.3768H75.7538V17.1768H74.5538V12.3768H76.9538V15.9768H78.1538V17.1768H79.3538V18.3768H81.7538V17.1768H82.9538V15.9768H84.1538V12.3768H86.5538V17.1768H85.3538V18.3768H84.1538V19.5768H82.9538V21.9768H84.1538V23.1768H85.3538V24.3768H86.5538V29.1768H84.1538ZM100.944 29.1768H88.9444V12.3768H100.944V14.7768H91.3444V19.5768H98.5444V21.9768H91.3444V26.7768H100.944V29.1768ZM108.135 29.1768V20.7768H106.935V19.5768H105.735V18.3768H104.535V17.1768H103.335V12.3768H105.735V15.9768H106.935V17.1768H108.135V18.3768H110.535V17.1768H111.735V15.9768H112.935V12.3768H115.335V17.1768H114.135V18.3768H112.935V19.5768H111.735V20.7768H110.535V29.1768H108.135Z" fill="white"/>
<path d="M122.637 17.6768H121.781V11.6768H125.209V12.1074H125.637V12.5352H126.065V14.6768H125.637V15.1074H125.209V15.5352H122.637V17.6768ZM122.637 14.6768H124.781V14.249H125.209V12.9629H124.781V12.5352H122.637V14.6768ZM129.715 17.6768H127.571V17.249H127.143V16.8213H126.715V14.249H127.143V13.8213H127.571V13.3936H129.715V13.8213H130.143V14.249H130.571V16.8213H130.143V17.249H129.715V17.6768ZM127.998 16.8213H129.284V16.3936H129.715V14.6768H129.284V14.249H127.998V14.6768H127.571V16.3936H127.998V16.8213ZM133.143 17.6768H131.857V16.3936H131.429V14.6768H131.001V13.3936H131.857V14.6768H132.284V16.3936H132.929V14.6768H133.357V13.3936H134.215V14.6768H134.643V16.3936H135.284V14.6768H135.715V13.3936H136.571V14.6768H136.143V16.3936H135.715V17.6768H134.429V16.3936H134.001V14.6768H133.571V16.3936H133.143V17.6768ZM140.004 17.6768H137.86V17.249H137.432V16.8213H137.004V14.249H137.432V13.8213H137.86V13.3936H140.004V13.8213H140.432V14.249H140.86V15.749H137.86V16.3936H138.287V16.8213H139.573V16.3936H140.86V16.8213H140.432V17.249H140.004V17.6768ZM137.86 15.1074H140.004V14.6768H139.573V14.249H138.287V14.6768H137.86V15.1074ZM142.571 17.6768H141.715V13.3936H142.571V13.8213H142.998V13.3936H144.071V14.249H142.998V14.6768H142.571V17.6768ZM147.504 17.6768H145.36V17.249H144.932V16.8213H144.504V14.249H144.932V13.8213H145.36V13.3936H147.504V13.8213H147.932V14.249H148.36V15.749H145.36V16.3936H145.787V16.8213H147.073V16.3936H148.36V16.8213H147.932V17.249H147.504V17.6768ZM145.36 15.1074H147.504V14.6768H147.073V14.249H145.787V14.6768H145.36V15.1074ZM151.784 17.6768H150.071V17.249H149.643V16.8213H149.215V14.249H149.643V13.8213H150.071V13.3936H151.784V13.8213H152.215V11.6768H153.071V17.6768H152.215V17.249H151.784V17.6768ZM150.498 16.8213H151.784V16.3936H152.215V14.6768H151.784V14.249H150.498V14.6768H150.071V16.3936H150.498V16.8213ZM159.492 17.6768H155.637V11.6768H159.065V12.1074H159.492V12.5352H159.92V14.249H159.492V14.6768H159.92V15.1074H160.351V16.8213H159.92V17.249H159.492V17.6768ZM156.492 14.249H158.637V13.8213H159.065V12.9629H158.637V12.5352H156.492V14.249ZM156.492 16.8213H159.065V16.3936H159.492V15.5352H159.065V15.1074H156.492V16.8213ZM162.062 19.3906H160.779V18.5322H162.062V17.6768H162.492V16.8213H162.062V15.9629H161.634V15.1074H161.206V14.249H160.779V13.3936H161.634V14.249H162.062V15.1074H162.492V15.9629H163.348V15.1074H163.779V14.249H164.206V13.3936H165.062V14.249H164.634V15.1074H164.206V15.9629H163.779V16.8213H163.348V17.6768H162.92V18.5322H162.492V18.96H162.062V19.3906Z" fill="white"/>
<path d="M126.754 26.6768V21.2768H127.954V27.2768H127.354V27.8768H126.754V28.4768H126.154V29.0768H125.554V29.6768H124.354V29.0768H123.754V28.4768H123.154V27.8768H122.554V27.2768H121.954V21.2768H123.154V26.6768H123.754V27.2768H124.354V27.8768H125.554V27.2768H126.154V26.6768H126.754ZM129.149 29.6768V28.4768H130.349V22.4768H129.149V21.2768H132.749V22.4768H131.549V28.4768H132.749V29.6768H129.149ZM138.754 29.6768H133.954V21.2768H138.754V21.8768H139.354V22.4768H139.954V24.8768H139.354V26.0768H139.954V28.4768H139.354V29.0768H138.754V29.6768ZM135.154 28.4768H138.154V27.8768H138.754V26.6768H138.154V26.0768H135.154V28.4768ZM135.154 24.8768H138.154V24.2768H138.754V23.0768H138.154V22.4768H135.154V24.8768ZM147.149 29.6768H141.149V21.2768H147.149V22.4768H142.349V24.8768H145.949V26.0768H142.349V28.4768H147.149V29.6768ZM151.944 26.0768V24.8768H154.344V29.6768H149.544V29.0768H148.944V28.4768H148.344V22.4768H148.944V21.8768H149.544V21.2768H153.144V21.8768H153.744V22.4768H154.344V23.6768H153.144V23.0768H152.544V22.4768H150.144V23.0768H149.544V27.8768H150.144V28.4768H153.144V26.0768H151.944ZM160.34 29.6768V27.2768H156.74V29.6768H155.54V23.6768H156.14V23.0768H156.74V22.4768H157.34V21.8768H157.94V21.2768H159.14V21.8768H159.74V22.4768H160.34V23.0768H160.94V23.6768H161.54V29.6768H160.34ZM156.74 26.0768H160.34V24.2768H159.74V23.6768H159.14V23.0768H157.94V23.6768H157.34V24.2768H156.74V26.0768ZM167.535 29.6768V23.6768H166.935V24.2768H166.335V26.0768H165.135V24.2768H164.535V23.6768H163.935V29.6768H162.735V21.2768H163.935V21.8768H164.535V22.4768H165.135V23.0768H166.335V22.4768H166.935V21.8768H167.535V21.2768H168.735V29.6768H167.535ZM175.93 29.6768H169.93V21.2768H175.93V22.4768H171.13V24.8768H174.73V26.0768H171.13V28.4768H175.93V29.6768Z" fill="white"/>
<defs>
<linearGradient id="paint0_linear_414_498" x1="-6.5" y1="7.5" x2="37.5" y2="41" gradientUnits="userSpaceOnUse">
<stop stop-color="#EE00FF"/>
<stop offset="0.663888" stop-color="#EE5705"/>
<stop offset="1" stop-color="#EE05E7"/>
</linearGradient>
<linearGradient id="paint1_linear_414_498" x1="-6.5" y1="7.5" x2="37.5" y2="41" gradientUnits="userSpaceOnUse">
<stop stop-color="#EE00FF"/>
<stop offset="0.663888" stop-color="#EE5705"/>
<stop offset="1" stop-color="#EE05E7"/>
</linearGradient>
<linearGradient id="paint2_linear_414_498" x1="-6.5" y1="7.5" x2="37.5" y2="41" gradientUnits="userSpaceOnUse">
<stop stop-color="#EE00FF"/>
<stop offset="0.663888" stop-color="#EE5705"/>
<stop offset="1" stop-color="#EE05E7"/>
</linearGradient>
<linearGradient id="paint3_linear_414_498" x1="-6.5" y1="7.5" x2="37.5" y2="41" gradientUnits="userSpaceOnUse">
<stop stop-color="#EE00FF"/>
<stop offset="0.663888" stop-color="#EE5705"/>
<stop offset="1" stop-color="#EE05E7"/>
</linearGradient>
<linearGradient id="paint4_linear_414_498" x1="-6.5" y1="7.5" x2="37.5" y2="41" gradientUnits="userSpaceOnUse">
<stop stop-color="#EE00FF"/>
<stop offset="0.663888" stop-color="#EE5705"/>
<stop offset="1" stop-color="#EE05E7"/>
</linearGradient>
<linearGradient id="paint5_linear_414_498" x1="-6.5" y1="7.5" x2="37.5" y2="41" gradientUnits="userSpaceOnUse">
<stop stop-color="#EE00FF"/>
<stop offset="0.663888" stop-color="#EE5705"/>
<stop offset="1" stop-color="#EE05E7"/>
</linearGradient>
<linearGradient id="paint6_linear_414_498" x1="-6.5" y1="7.5" x2="37.5" y2="41" gradientUnits="userSpaceOnUse">
<stop stop-color="#EE00FF"/>
<stop offset="0.663888" stop-color="#EE5705"/>
<stop offset="1" stop-color="#EE05E7"/>
</linearGradient>
<linearGradient id="paint7_linear_414_498" x1="-6.5" y1="7.5" x2="37.5" y2="41" gradientUnits="userSpaceOnUse">
<stop stop-color="#EE00FF"/>
<stop offset="0.663888" stop-color="#EE5705"/>
<stop offset="1" stop-color="#EE05E7"/>
</linearGradient>
<linearGradient id="paint8_linear_414_498" x1="-6.5" y1="7.5" x2="37.5" y2="41" gradientUnits="userSpaceOnUse">
<stop stop-color="#EE00FF"/>
<stop offset="0.663888" stop-color="#EE5705"/>
<stop offset="1" stop-color="#EE05E7"/>
</linearGradient>
<linearGradient id="paint9_linear_414_498" x1="-6.5" y1="7.5" x2="37.5" y2="41" gradientUnits="userSpaceOnUse">
<stop stop-color="#EE00FF"/>
<stop offset="0.663888" stop-color="#EE5705"/>
<stop offset="1" stop-color="#EE05E7"/>
</linearGradient>
<linearGradient id="paint10_linear_414_498" x1="-6.5" y1="7.5" x2="37.5" y2="41" gradientUnits="userSpaceOnUse">
<stop stop-color="#EE00FF"/>
<stop offset="0.663888" stop-color="#EE5705"/>
<stop offset="1" stop-color="#EE05E7"/>
</linearGradient>
<linearGradient id="paint11_linear_414_498" x1="-6.5" y1="7.5" x2="37.5" y2="41" gradientUnits="userSpaceOnUse">
<stop stop-color="#EE00FF"/>
<stop offset="0.663888" stop-color="#EE5705"/>
<stop offset="1" stop-color="#EE05E7"/>
</linearGradient>
<linearGradient id="paint12_linear_414_498" x1="-6.5" y1="7.5" x2="37.5" y2="41" gradientUnits="userSpaceOnUse">
<stop stop-color="#EE00FF"/>
<stop offset="0.663888" stop-color="#EE5705"/>
<stop offset="1" stop-color="#EE05E7"/>
</linearGradient>
<linearGradient id="paint13_linear_414_498" x1="-6.5" y1="7.5" x2="37.5" y2="41" gradientUnits="userSpaceOnUse">
<stop stop-color="#EE00FF"/>
<stop offset="0.663888" stop-color="#EE5705"/>
<stop offset="1" stop-color="#EE05E7"/>
</linearGradient>
<linearGradient id="paint14_linear_414_498" x1="-6.5" y1="7.5" x2="37.5" y2="41" gradientUnits="userSpaceOnUse">
<stop stop-color="#EE00FF"/>
<stop offset="0.663888" stop-color="#EE5705"/>
<stop offset="1" stop-color="#EE05E7"/>
</linearGradient>
<linearGradient id="paint15_linear_414_498" x1="-6.5" y1="7.5" x2="37.5" y2="41" gradientUnits="userSpaceOnUse">
<stop stop-color="#EE00FF"/>
<stop offset="0.663888" stop-color="#EE5705"/>
<stop offset="1" stop-color="#EE05E7"/>
</linearGradient>
<linearGradient id="paint16_linear_414_498" x1="-6.5" y1="7.5" x2="37.5" y2="41" gradientUnits="userSpaceOnUse">
<stop stop-color="#EE00FF"/>
<stop offset="0.663888" stop-color="#EE5705"/>
<stop offset="1" stop-color="#EE05E7"/>
</linearGradient>
<linearGradient id="paint17_linear_414_498" x1="-6.5" y1="7.5" x2="37.5" y2="41" gradientUnits="userSpaceOnUse">
<stop stop-color="#EE00FF"/>
<stop offset="0.663888" stop-color="#EE5705"/>
<stop offset="1" stop-color="#EE05E7"/>
</linearGradient>
<linearGradient id="paint18_linear_414_498" x1="-6.5" y1="7.5" x2="37.5" y2="41" gradientUnits="userSpaceOnUse">
<stop stop-color="#EE00FF"/>
<stop offset="0.663888" stop-color="#EE5705"/>
<stop offset="1" stop-color="#EE05E7"/>
</linearGradient>
<linearGradient id="paint19_linear_414_498" x1="-6.5" y1="7.5" x2="37.5" y2="41" gradientUnits="userSpaceOnUse">
<stop stop-color="#EE00FF"/>
<stop offset="0.663888" stop-color="#EE5705"/>
<stop offset="1" stop-color="#EE05E7"/>
</linearGradient>
<linearGradient id="paint20_linear_414_498" x1="-6.5" y1="7.5" x2="37.5" y2="41" gradientUnits="userSpaceOnUse">
<stop stop-color="#EE00FF"/>
<stop offset="0.663888" stop-color="#EE5705"/>
<stop offset="1" stop-color="#EE05E7"/>
</linearGradient>
<linearGradient id="paint21_linear_414_498" x1="-6.5" y1="7.5" x2="37.5" y2="41" gradientUnits="userSpaceOnUse">
<stop stop-color="#EE00FF"/>
<stop offset="0.663888" stop-color="#EE5705"/>
<stop offset="1" stop-color="#EE05E7"/>
</linearGradient>
<linearGradient id="paint22_linear_414_498" x1="-6.5" y1="7.5" x2="37.5" y2="41" gradientUnits="userSpaceOnUse">
<stop stop-color="#EE00FF"/>
<stop offset="0.663888" stop-color="#EE5705"/>
<stop offset="1" stop-color="#EE05E7"/>
</linearGradient>
<linearGradient id="paint23_linear_414_498" x1="-6.5" y1="7.5" x2="37.5" y2="41" gradientUnits="userSpaceOnUse">
<stop stop-color="#EE00FF"/>
<stop offset="0.663888" stop-color="#EE5705"/>
<stop offset="1" stop-color="#EE05E7"/>
</linearGradient>
<linearGradient id="paint24_linear_414_498" x1="-6.5" y1="7.5" x2="37.5" y2="41" gradientUnits="userSpaceOnUse">
<stop stop-color="#EE00FF"/>
<stop offset="0.663888" stop-color="#EE5705"/>
<stop offset="1" stop-color="#EE05E7"/>
</linearGradient>
<linearGradient id="paint25_linear_414_498" x1="-6.5" y1="7.5" x2="37.5" y2="41" gradientUnits="userSpaceOnUse">
<stop stop-color="#EE00FF"/>
<stop offset="0.663888" stop-color="#EE5705"/>
<stop offset="1" stop-color="#EE05E7"/>
</linearGradient>
<linearGradient id="paint26_linear_414_498" x1="-6.5" y1="7.5" x2="37.5" y2="41" gradientUnits="userSpaceOnUse">
<stop stop-color="#EE00FF"/>
<stop offset="0.663888" stop-color="#EE5705"/>
<stop offset="1" stop-color="#EE05E7"/>
</linearGradient>
<linearGradient id="paint27_linear_414_498" x1="-6.5" y1="7.5" x2="37.5" y2="41" gradientUnits="userSpaceOnUse">
<stop stop-color="#EE00FF"/>
<stop offset="0.663888" stop-color="#EE5705"/>
<stop offset="1" stop-color="#EE05E7"/>
</linearGradient>
<linearGradient id="paint28_linear_414_498" x1="-6.5" y1="7.5" x2="37.5" y2="41" gradientUnits="userSpaceOnUse">
<stop stop-color="#EE00FF"/>
<stop offset="0.663888" stop-color="#EE5705"/>
<stop offset="1" stop-color="#EE05E7"/>
</linearGradient>
<linearGradient id="paint29_linear_414_498" x1="-6.5" y1="7.5" x2="37.5" y2="41" gradientUnits="userSpaceOnUse">
<stop stop-color="#EE00FF"/>
<stop offset="0.663888" stop-color="#EE5705"/>
<stop offset="1" stop-color="#EE05E7"/>
</linearGradient>
<linearGradient id="paint30_linear_414_498" x1="-6.5" y1="7.5" x2="37.5" y2="41" gradientUnits="userSpaceOnUse">
<stop stop-color="#EE00FF"/>
<stop offset="0.663888" stop-color="#EE5705"/>
<stop offset="1" stop-color="#EE05E7"/>
</linearGradient>
<linearGradient id="paint31_linear_414_498" x1="-6.5" y1="7.5" x2="37.5" y2="41" gradientUnits="userSpaceOnUse">
<stop stop-color="#EE00FF"/>
<stop offset="0.663888" stop-color="#EE5705"/>
<stop offset="1" stop-color="#EE05E7"/>
</linearGradient>
<linearGradient id="paint32_linear_414_498" x1="-6.5" y1="7.5" x2="37.5" y2="41" gradientUnits="userSpaceOnUse">
<stop stop-color="#EE00FF"/>
<stop offset="0.663888" stop-color="#EE5705"/>
<stop offset="1" stop-color="#EE05E7"/>
</linearGradient>
<linearGradient id="paint33_linear_414_498" x1="-6.5" y1="7.5" x2="37.5" y2="41" gradientUnits="userSpaceOnUse">
<stop stop-color="#EE00FF"/>
<stop offset="0.663888" stop-color="#EE5705"/>
<stop offset="1" stop-color="#EE05E7"/>
</linearGradient>
<linearGradient id="paint34_linear_414_498" x1="-6.5" y1="7.5" x2="37.5" y2="41" gradientUnits="userSpaceOnUse">
<stop stop-color="#EE00FF"/>
<stop offset="0.663888" stop-color="#EE5705"/>
<stop offset="1" stop-color="#EE05E7"/>
</linearGradient>
<linearGradient id="paint35_linear_414_498" x1="-6.5" y1="7.5" x2="37.5" y2="41" gradientUnits="userSpaceOnUse">
<stop stop-color="#EE00FF"/>
<stop offset="0.663888" stop-color="#EE5705"/>
<stop offset="1" stop-color="#EE05E7"/>
</linearGradient>
<linearGradient id="paint36_linear_414_498" x1="-6.5" y1="7.5" x2="37.5" y2="41" gradientUnits="userSpaceOnUse">
<stop stop-color="#EE00FF"/>
<stop offset="0.663888" stop-color="#EE5705"/>
<stop offset="1" stop-color="#EE05E7"/>
</linearGradient>
<linearGradient id="paint37_linear_414_498" x1="-6.5" y1="7.5" x2="37.5" y2="41" gradientUnits="userSpaceOnUse">
<stop stop-color="#EE00FF"/>
<stop offset="0.663888" stop-color="#EE5705"/>
<stop offset="1" stop-color="#EE05E7"/>
</linearGradient>
<linearGradient id="paint38_linear_414_498" x1="-6.5" y1="7.5" x2="37.5" y2="41" gradientUnits="userSpaceOnUse">
<stop stop-color="#EE00FF"/>
<stop offset="0.663888" stop-color="#EE5705"/>
<stop offset="1" stop-color="#EE05E7"/>
</linearGradient>
<linearGradient id="paint39_linear_414_498" x1="-6.5" y1="7.5" x2="37.5" y2="41" gradientUnits="userSpaceOnUse">
<stop stop-color="#EE00FF"/>
<stop offset="0.663888" stop-color="#EE5705"/>
<stop offset="1" stop-color="#EE05E7"/>
</linearGradient>
<linearGradient id="paint40_linear_414_498" x1="-6.5" y1="7.5" x2="37.5" y2="41" gradientUnits="userSpaceOnUse">
<stop stop-color="#EE00FF"/>
<stop offset="0.663888" stop-color="#EE5705"/>
<stop offset="1" stop-color="#EE05E7"/>
</linearGradient>
<linearGradient id="paint41_linear_414_498" x1="-6.5" y1="7.5" x2="37.5" y2="41" gradientUnits="userSpaceOnUse">
<stop stop-color="#EE00FF"/>
<stop offset="0.663888" stop-color="#EE5705"/>
<stop offset="1" stop-color="#EE05E7"/>
</linearGradient>
<linearGradient id="paint42_linear_414_498" x1="-6.5" y1="7.5" x2="37.5" y2="41" gradientUnits="userSpaceOnUse">
<stop stop-color="#EE00FF"/>
<stop offset="0.663888" stop-color="#EE5705"/>
<stop offset="1" stop-color="#EE05E7"/>
</linearGradient>
<linearGradient id="paint43_linear_414_498" x1="-6.5" y1="7.5" x2="37.5" y2="41" gradientUnits="userSpaceOnUse">
<stop stop-color="#EE00FF"/>
<stop offset="0.663888" stop-color="#EE5705"/>
<stop offset="1" stop-color="#EE05E7"/>
</linearGradient>
<linearGradient id="paint44_linear_414_498" x1="-6.5" y1="7.5" x2="37.5" y2="41" gradientUnits="userSpaceOnUse">
<stop stop-color="#EE00FF"/>
<stop offset="0.663888" stop-color="#EE5705"/>
<stop offset="1" stop-color="#EE05E7"/>
</linearGradient>
<linearGradient id="paint45_linear_414_498" x1="-6.5" y1="7.5" x2="37.5" y2="41" gradientUnits="userSpaceOnUse">
<stop stop-color="#EE00FF"/>
<stop offset="0.663888" stop-color="#EE5705"/>
<stop offset="1" stop-color="#EE05E7"/>
</linearGradient>
<linearGradient id="paint46_linear_414_498" x1="-6.5" y1="7.5" x2="37.5" y2="41" gradientUnits="userSpaceOnUse">
<stop stop-color="#EE00FF"/>
<stop offset="0.663888" stop-color="#EE5705"/>
<stop offset="1" stop-color="#EE05E7"/>
</linearGradient>
<linearGradient id="paint47_linear_414_498" x1="-6.5" y1="7.5" x2="37.5" y2="41" gradientUnits="userSpaceOnUse">
<stop stop-color="#EE00FF"/>
<stop offset="0.663888" stop-color="#EE5705"/>
<stop offset="1" stop-color="#EE05E7"/>
</linearGradient>
<linearGradient id="paint48_linear_414_498" x1="-6.5" y1="7.5" x2="37.5" y2="41" gradientUnits="userSpaceOnUse">
<stop stop-color="#EE00FF"/>
<stop offset="0.663888" stop-color="#EE5705"/>
<stop offset="1" stop-color="#EE05E7"/>
</linearGradient>
<linearGradient id="paint49_linear_414_498" x1="-6.5" y1="7.5" x2="37.5" y2="41" gradientUnits="userSpaceOnUse">
<stop stop-color="#EE00FF"/>
<stop offset="0.663888" stop-color="#EE5705"/>
<stop offset="1" stop-color="#EE05E7"/>
</linearGradient>
<linearGradient id="paint50_linear_414_498" x1="-6.5" y1="7.5" x2="37.5" y2="41" gradientUnits="userSpaceOnUse">
<stop stop-color="#EE00FF"/>
<stop offset="0.663888" stop-color="#EE5705"/>
<stop offset="1" stop-color="#EE05E7"/>
</linearGradient>
<linearGradient id="paint51_linear_414_498" x1="-6.5" y1="7.5" x2="37.5" y2="41" gradientUnits="userSpaceOnUse">
<stop stop-color="#EE00FF"/>
<stop offset="0.663888" stop-color="#EE5705"/>
<stop offset="1" stop-color="#EE05E7"/>
</linearGradient>
<linearGradient id="paint52_linear_414_498" x1="-6.5" y1="7.5" x2="37.5" y2="41" gradientUnits="userSpaceOnUse">
<stop stop-color="#EE00FF"/>
<stop offset="0.663888" stop-color="#EE5705"/>
<stop offset="1" stop-color="#EE05E7"/>
</linearGradient>
<linearGradient id="paint53_linear_414_498" x1="-6.5" y1="7.5" x2="37.5" y2="41" gradientUnits="userSpaceOnUse">
<stop stop-color="#EE00FF"/>
<stop offset="0.663888" stop-color="#EE5705"/>
<stop offset="1" stop-color="#EE05E7"/>
</linearGradient>
<linearGradient id="paint54_linear_414_498" x1="-6.5" y1="7.5" x2="37.5" y2="41" gradientUnits="userSpaceOnUse">
<stop stop-color="#EE00FF"/>
<stop offset="0.663888" stop-color="#EE5705"/>
<stop offset="1" stop-color="#EE05E7"/>
</linearGradient>
<linearGradient id="paint55_linear_414_498" x1="-6.5" y1="7.5" x2="37.5" y2="41" gradientUnits="userSpaceOnUse">
<stop stop-color="#EE00FF"/>
<stop offset="0.663888" stop-color="#EE5705"/>
<stop offset="1" stop-color="#EE05E7"/>
</linearGradient>
<linearGradient id="paint56_linear_414_498" x1="-6.5" y1="7.5" x2="37.5" y2="41" gradientUnits="userSpaceOnUse">
<stop stop-color="#EE00FF"/>
<stop offset="0.663888" stop-color="#EE5705"/>
<stop offset="1" stop-color="#EE05E7"/>
</linearGradient>
<linearGradient id="paint57_linear_414_498" x1="-6.5" y1="7.5" x2="37.5" y2="41" gradientUnits="userSpaceOnUse">
<stop stop-color="#EE00FF"/>
<stop offset="0.663888" stop-color="#EE5705"/>
<stop offset="1" stop-color="#EE05E7"/>
</linearGradient>
<linearGradient id="paint58_linear_414_498" x1="-6.5" y1="7.5" x2="37.5" y2="41" gradientUnits="userSpaceOnUse">
<stop stop-color="#EE00FF"/>
<stop offset="0.663888" stop-color="#EE5705"/>
<stop offset="1" stop-color="#EE05E7"/>
</linearGradient>
<linearGradient id="paint59_linear_414_498" x1="-6.5" y1="7.5" x2="37.5" y2="41" gradientUnits="userSpaceOnUse">
<stop stop-color="#EE00FF"/>
<stop offset="0.663888" stop-color="#EE5705"/>
<stop offset="1" stop-color="#EE05E7"/>
</linearGradient>
<linearGradient id="paint60_linear_414_498" x1="-6.5" y1="7.5" x2="37.5" y2="41" gradientUnits="userSpaceOnUse">
<stop stop-color="#EE00FF"/>
<stop offset="0.663888" stop-color="#EE5705"/>
<stop offset="1" stop-color="#EE05E7"/>
</linearGradient>
<linearGradient id="paint61_linear_414_498" x1="-6.5" y1="7.5" x2="37.5" y2="41" gradientUnits="userSpaceOnUse">
<stop stop-color="#EE00FF"/>
<stop offset="0.663888" stop-color="#EE5705"/>
<stop offset="1" stop-color="#EE05E7"/>
</linearGradient>
<linearGradient id="paint62_linear_414_498" x1="-6.5" y1="7.5" x2="37.5" y2="41" gradientUnits="userSpaceOnUse">
<stop stop-color="#EE00FF"/>
<stop offset="0.663888" stop-color="#EE5705"/>
<stop offset="1" stop-color="#EE05E7"/>
</linearGradient>
<linearGradient id="paint63_linear_414_498" x1="-6.5" y1="7.5" x2="37.5" y2="41" gradientUnits="userSpaceOnUse">
<stop stop-color="#EE00FF"/>
<stop offset="0.663888" stop-color="#EE5705"/>
<stop offset="1" stop-color="#EE05E7"/>
</linearGradient>
</defs>
</svg>
